<mxfile host="app.diagrams.net" agent="Mozilla/5.0 (X11; Linux x86_64) AppleWebKit/537.36 (KHTML, like Gecko) Chrome/131.0.0.0 Safari/537.36" version="26.0.10">
  <diagram name="Page-1" id="YU9haA6fMDT3eav_pW62">
    <mxGraphModel dx="2197" dy="977" grid="1" gridSize="10" guides="1" tooltips="1" connect="1" arrows="1" fold="1" page="1" pageScale="1" pageWidth="850" pageHeight="1100" math="0" shadow="0">
      <root>
        <mxCell id="0" />
        <mxCell id="1" parent="0" />
        <mxCell id="FvWVYKfLzOEbFjhHtuPe-29" value="" style="rounded=0;whiteSpace=wrap;html=1;fillColor=none;strokeColor=#b85450;" parent="1" vertex="1">
          <mxGeometry x="470" y="230" width="260" height="300" as="geometry" />
        </mxCell>
        <mxCell id="FvWVYKfLzOEbFjhHtuPe-1" value="Batch Final Transaction" style="whiteSpace=wrap;html=1;aspect=fixed;fillColor=#e1d5e7;strokeColor=#9673a6;" parent="1" vertex="1">
          <mxGeometry x="360" y="120" width="80" height="80" as="geometry" />
        </mxCell>
        <mxCell id="FvWVYKfLzOEbFjhHtuPe-2" value="" style="endArrow=none;html=1;rounded=0;entryX=0.5;entryY=1;entryDx=0;entryDy=0;" parent="1" target="FvWVYKfLzOEbFjhHtuPe-1" edge="1">
          <mxGeometry width="50" height="50" relative="1" as="geometry">
            <mxPoint x="400" y="1540" as="sourcePoint" />
            <mxPoint x="440" y="570" as="targetPoint" />
          </mxGeometry>
        </mxCell>
        <mxCell id="FvWVYKfLzOEbFjhHtuPe-17" value="" style="rounded=0;whiteSpace=wrap;html=1;fillColor=none;dashed=1;dashPattern=12 12;strokeWidth=1;" parent="1" vertex="1">
          <mxGeometry x="480" y="240" width="240" height="120" as="geometry" />
        </mxCell>
        <mxCell id="FvWVYKfLzOEbFjhHtuPe-18" value="&lt;font style=&quot;font-size: 11px;&quot;&gt;Treasury Income&lt;br&gt;&lt;/font&gt;" style="text;html=1;strokeColor=none;fillColor=none;align=center;verticalAlign=middle;whiteSpace=wrap;rounded=0;" parent="1" vertex="1">
          <mxGeometry x="620" y="250" width="90" height="30" as="geometry" />
        </mxCell>
        <mxCell id="FvWVYKfLzOEbFjhHtuPe-19" value="" style="rounded=0;whiteSpace=wrap;html=1;fillColor=#d5e8d4;strokeColor=#82b366;" parent="1" vertex="1">
          <mxGeometry x="490" y="250" width="120" height="40" as="geometry" />
        </mxCell>
        <mxCell id="FvWVYKfLzOEbFjhHtuPe-20" value="Underlying" style="rounded=0;whiteSpace=wrap;html=1;fillColor=#dae8fc;strokeColor=#6c8ebf;" parent="1" vertex="1">
          <mxGeometry x="490" y="290" width="120" height="20" as="geometry" />
        </mxCell>
        <mxCell id="FvWVYKfLzOEbFjhHtuPe-23" value="" style="rounded=0;whiteSpace=wrap;html=1;fillColor=none;dashed=1;dashPattern=12 12;strokeWidth=1;" parent="1" vertex="1">
          <mxGeometry x="480" y="400" width="240" height="120" as="geometry" />
        </mxCell>
        <mxCell id="FvWVYKfLzOEbFjhHtuPe-24" value="&lt;font style=&quot;font-size: 11px;&quot;&gt;Dividends Income&lt;br&gt;&lt;/font&gt;" style="text;html=1;strokeColor=none;fillColor=none;align=center;verticalAlign=middle;whiteSpace=wrap;rounded=0;" parent="1" vertex="1">
          <mxGeometry x="620" y="410" width="90" height="30" as="geometry" />
        </mxCell>
        <mxCell id="FvWVYKfLzOEbFjhHtuPe-25" value="" style="rounded=0;whiteSpace=wrap;html=1;fillColor=#d5e8d4;strokeColor=#82b366;" parent="1" vertex="1">
          <mxGeometry x="490" y="410" width="120" height="40" as="geometry" />
        </mxCell>
        <mxCell id="FvWVYKfLzOEbFjhHtuPe-26" value="Underlying" style="rounded=0;whiteSpace=wrap;html=1;fillColor=#dae8fc;strokeColor=#6c8ebf;" parent="1" vertex="1">
          <mxGeometry x="490" y="450" width="120" height="20" as="geometry" />
        </mxCell>
        <mxCell id="FvWVYKfLzOEbFjhHtuPe-30" value="Only if it exists" style="text;html=1;strokeColor=none;fillColor=none;align=center;verticalAlign=middle;whiteSpace=wrap;rounded=0;" parent="1" vertex="1">
          <mxGeometry x="470" y="200" width="260" height="30" as="geometry" />
        </mxCell>
        <mxCell id="FvWVYKfLzOEbFjhHtuPe-31" value="" style="rounded=0;whiteSpace=wrap;html=1;fillColor=none;dashed=1;dashPattern=12 12;strokeWidth=1;" parent="1" vertex="1">
          <mxGeometry x="480" y="560" width="240" height="120" as="geometry" />
        </mxCell>
        <mxCell id="FvWVYKfLzOEbFjhHtuPe-32" value="Batch" style="text;html=1;strokeColor=none;fillColor=none;align=center;verticalAlign=middle;whiteSpace=wrap;rounded=0;" parent="1" vertex="1">
          <mxGeometry x="620" y="570" width="90" height="30" as="geometry" />
        </mxCell>
        <mxCell id="FvWVYKfLzOEbFjhHtuPe-33" value="ActionValue" style="rounded=0;whiteSpace=wrap;html=1;fillColor=#d5e8d4;strokeColor=#82b366;" parent="1" vertex="1">
          <mxGeometry x="490" y="570" width="120" height="40" as="geometry" />
        </mxCell>
        <mxCell id="FvWVYKfLzOEbFjhHtuPe-34" value="&lt;div&gt;minAda&lt;/div&gt;" style="rounded=0;whiteSpace=wrap;html=1;fillColor=#dae8fc;strokeColor=#6c8ebf;" parent="1" vertex="1">
          <mxGeometry x="490" y="610" width="120" height="20" as="geometry" />
        </mxCell>
        <mxCell id="FvWVYKfLzOEbFjhHtuPe-35" value="Batch Token" style="rounded=0;whiteSpace=wrap;html=1;fillColor=#dae8fc;strokeColor=#6c8ebf;" parent="1" vertex="1">
          <mxGeometry x="490" y="630" width="120" height="20" as="geometry" />
        </mxCell>
        <mxCell id="FvWVYKfLzOEbFjhHtuPe-43" value="" style="rounded=0;whiteSpace=wrap;html=1;fillColor=none;fontColor=#000000;strokeColor=#C73500;" parent="1" vertex="1">
          <mxGeometry x="460" y="860" width="280" height="380" as="geometry" />
        </mxCell>
        <mxCell id="FvWVYKfLzOEbFjhHtuPe-44" value="" style="rounded=0;whiteSpace=wrap;html=1;fillColor=none;dashed=1;dashPattern=12 12;strokeWidth=1;" parent="1" vertex="1">
          <mxGeometry x="480" y="880" width="240" height="120" as="geometry" />
        </mxCell>
        <mxCell id="FvWVYKfLzOEbFjhHtuPe-45" value="Action" style="text;html=1;strokeColor=none;fillColor=none;align=center;verticalAlign=middle;whiteSpace=wrap;rounded=0;" parent="1" vertex="1">
          <mxGeometry x="620" y="890" width="90" height="30" as="geometry" />
        </mxCell>
        <mxCell id="FvWVYKfLzOEbFjhHtuPe-46" value="Action Datum" style="rounded=0;whiteSpace=wrap;html=1;fillColor=#d5e8d4;strokeColor=#82b366;" parent="1" vertex="1">
          <mxGeometry x="490" y="890" width="120" height="40" as="geometry" />
        </mxCell>
        <mxCell id="FvWVYKfLzOEbFjhHtuPe-47" value="minAda" style="rounded=0;whiteSpace=wrap;html=1;fillColor=#dae8fc;strokeColor=#6c8ebf;" parent="1" vertex="1">
          <mxGeometry x="490" y="930" width="120" height="20" as="geometry" />
        </mxCell>
        <mxCell id="FvWVYKfLzOEbFjhHtuPe-48" value="Underlying" style="rounded=0;whiteSpace=wrap;html=1;fillColor=#dae8fc;strokeColor=#6c8ebf;" parent="1" vertex="1">
          <mxGeometry x="490" y="950" width="120" height="20" as="geometry" />
        </mxCell>
        <mxCell id="FvWVYKfLzOEbFjhHtuPe-49" value="Action Token" style="rounded=0;whiteSpace=wrap;html=1;fillColor=#dae8fc;strokeColor=#6c8ebf;" parent="1" vertex="1">
          <mxGeometry x="490" y="970" width="120" height="20" as="geometry" />
        </mxCell>
        <mxCell id="FvWVYKfLzOEbFjhHtuPe-50" value="" style="rounded=0;whiteSpace=wrap;html=1;fillColor=none;dashed=1;dashPattern=12 12;strokeWidth=1;" parent="1" vertex="1">
          <mxGeometry x="480" y="1010" width="240" height="120" as="geometry" />
        </mxCell>
        <mxCell id="FvWVYKfLzOEbFjhHtuPe-51" value="Action" style="text;html=1;strokeColor=none;fillColor=none;align=center;verticalAlign=middle;whiteSpace=wrap;rounded=0;" parent="1" vertex="1">
          <mxGeometry x="620" y="1020" width="90" height="30" as="geometry" />
        </mxCell>
        <mxCell id="FvWVYKfLzOEbFjhHtuPe-52" value="Action Datum" style="rounded=0;whiteSpace=wrap;html=1;fillColor=#d5e8d4;strokeColor=#82b366;" parent="1" vertex="1">
          <mxGeometry x="490" y="1020" width="120" height="40" as="geometry" />
        </mxCell>
        <mxCell id="FvWVYKfLzOEbFjhHtuPe-53" value="minAda" style="rounded=0;whiteSpace=wrap;html=1;fillColor=#dae8fc;strokeColor=#6c8ebf;" parent="1" vertex="1">
          <mxGeometry x="490" y="1060" width="120" height="20" as="geometry" />
        </mxCell>
        <mxCell id="FvWVYKfLzOEbFjhHtuPe-54" value="Underlying" style="rounded=0;whiteSpace=wrap;html=1;fillColor=#dae8fc;strokeColor=#6c8ebf;" parent="1" vertex="1">
          <mxGeometry x="490" y="1080" width="120" height="20" as="geometry" />
        </mxCell>
        <mxCell id="FvWVYKfLzOEbFjhHtuPe-55" value="&lt;div&gt;Action Token&lt;br&gt;&lt;/div&gt;" style="rounded=0;whiteSpace=wrap;html=1;fillColor=#dae8fc;strokeColor=#6c8ebf;" parent="1" vertex="1">
          <mxGeometry x="490" y="1100" width="120" height="20" as="geometry" />
        </mxCell>
        <mxCell id="FvWVYKfLzOEbFjhHtuPe-56" value="... &lt;br&gt;&lt;div&gt;Total &lt;i&gt;numAction&lt;/i&gt; utxos&lt;/div&gt;&lt;div&gt;&lt;br&gt;&lt;/div&gt;Underlying values are distributed according to market params" style="text;html=1;strokeColor=none;fillColor=none;align=center;verticalAlign=middle;whiteSpace=wrap;rounded=0;" parent="1" vertex="1">
          <mxGeometry x="510" y="1150" width="180" height="70" as="geometry" />
        </mxCell>
        <mxCell id="FvWVYKfLzOEbFjhHtuPe-90" style="edgeStyle=orthogonalEdgeStyle;rounded=0;orthogonalLoop=1;jettySize=auto;html=1;exitX=1;exitY=0.5;exitDx=0;exitDy=0;entryX=0;entryY=0.5;entryDx=0;entryDy=0;" parent="1" source="FvWVYKfLzOEbFjhHtuPe-57" target="FvWVYKfLzOEbFjhHtuPe-44" edge="1">
          <mxGeometry relative="1" as="geometry" />
        </mxCell>
        <mxCell id="FvWVYKfLzOEbFjhHtuPe-91" style="edgeStyle=orthogonalEdgeStyle;rounded=0;orthogonalLoop=1;jettySize=auto;html=1;exitX=1;exitY=0.5;exitDx=0;exitDy=0;entryX=0;entryY=0.5;entryDx=0;entryDy=0;" parent="1" source="FvWVYKfLzOEbFjhHtuPe-57" target="FvWVYKfLzOEbFjhHtuPe-50" edge="1">
          <mxGeometry relative="1" as="geometry" />
        </mxCell>
        <mxCell id="FvWVYKfLzOEbFjhHtuPe-92" style="edgeStyle=orthogonalEdgeStyle;rounded=0;orthogonalLoop=1;jettySize=auto;html=1;exitX=1;exitY=0.5;exitDx=0;exitDy=0;entryX=0;entryY=0.5;entryDx=0;entryDy=0;" parent="1" source="FvWVYKfLzOEbFjhHtuPe-57" target="FvWVYKfLzOEbFjhHtuPe-56" edge="1">
          <mxGeometry relative="1" as="geometry">
            <Array as="points">
              <mxPoint x="400" y="310" />
              <mxPoint x="400" y="1185" />
            </Array>
          </mxGeometry>
        </mxCell>
        <mxCell id="FvWVYKfLzOEbFjhHtuPe-93" style="edgeStyle=orthogonalEdgeStyle;rounded=0;orthogonalLoop=1;jettySize=auto;html=1;exitX=1;exitY=0.5;exitDx=0;exitDy=0;" parent="1" source="FvWVYKfLzOEbFjhHtuPe-57" target="FvWVYKfLzOEbFjhHtuPe-17" edge="1">
          <mxGeometry relative="1" as="geometry" />
        </mxCell>
        <mxCell id="FvWVYKfLzOEbFjhHtuPe-94" style="edgeStyle=orthogonalEdgeStyle;rounded=0;orthogonalLoop=1;jettySize=auto;html=1;exitX=1;exitY=0.5;exitDx=0;exitDy=0;entryX=0;entryY=0.5;entryDx=0;entryDy=0;" parent="1" source="FvWVYKfLzOEbFjhHtuPe-57" target="FvWVYKfLzOEbFjhHtuPe-23" edge="1">
          <mxGeometry relative="1" as="geometry" />
        </mxCell>
        <mxCell id="FvWVYKfLzOEbFjhHtuPe-57" value="" style="rounded=0;whiteSpace=wrap;html=1;fillColor=none;dashed=1;dashPattern=12 12;strokeWidth=1;" parent="1" vertex="1">
          <mxGeometry x="80" y="240" width="240" height="140" as="geometry" />
        </mxCell>
        <mxCell id="FvWVYKfLzOEbFjhHtuPe-58" value="BatchFinal" style="text;html=1;strokeColor=none;fillColor=none;align=center;verticalAlign=middle;whiteSpace=wrap;rounded=0;" parent="1" vertex="1">
          <mxGeometry x="220" y="250" width="90" height="30" as="geometry" />
        </mxCell>
        <mxCell id="FvWVYKfLzOEbFjhHtuPe-59" value="Action Value" style="rounded=0;whiteSpace=wrap;html=1;fillColor=#d5e8d4;strokeColor=#82b366;" parent="1" vertex="1">
          <mxGeometry x="90" y="250" width="120" height="40" as="geometry" />
        </mxCell>
        <mxCell id="FvWVYKfLzOEbFjhHtuPe-60" value="minAda" style="rounded=0;whiteSpace=wrap;html=1;fillColor=#dae8fc;strokeColor=#6c8ebf;" parent="1" vertex="1">
          <mxGeometry x="90" y="290" width="120" height="20" as="geometry" />
        </mxCell>
        <mxCell id="FvWVYKfLzOEbFjhHtuPe-61" value="Batch Token" style="rounded=0;whiteSpace=wrap;html=1;fillColor=#dae8fc;strokeColor=#6c8ebf;" parent="1" vertex="1">
          <mxGeometry x="90" y="310" width="120" height="20" as="geometry" />
        </mxCell>
        <mxCell id="FvWVYKfLzOEbFjhHtuPe-62" value="underlying" style="rounded=0;whiteSpace=wrap;html=1;fillColor=#dae8fc;strokeColor=#6c8ebf;" parent="1" vertex="1">
          <mxGeometry x="90" y="330" width="120" height="20" as="geometry" />
        </mxCell>
        <mxCell id="FvWVYKfLzOEbFjhHtuPe-63" value="&lt;font style=&quot;font-size: 10px;&quot;&gt;numAction ActionTokens&lt;/font&gt;" style="rounded=0;whiteSpace=wrap;html=1;fillColor=#dae8fc;strokeColor=#6c8ebf;" parent="1" vertex="1">
          <mxGeometry x="90" y="350" width="120" height="20" as="geometry" />
        </mxCell>
        <mxCell id="FvWVYKfLzOEbFjhHtuPe-89" style="edgeStyle=orthogonalEdgeStyle;rounded=0;orthogonalLoop=1;jettySize=auto;html=1;exitX=1;exitY=0.5;exitDx=0;exitDy=0;entryX=0;entryY=0.5;entryDx=0;entryDy=0;" parent="1" source="FvWVYKfLzOEbFjhHtuPe-65" target="FvWVYKfLzOEbFjhHtuPe-84" edge="1">
          <mxGeometry relative="1" as="geometry" />
        </mxCell>
        <mxCell id="FvWVYKfLzOEbFjhHtuPe-65" value="" style="rounded=0;whiteSpace=wrap;html=1;fillColor=none;dashed=1;dashPattern=12 12;strokeWidth=1;" parent="1" vertex="1">
          <mxGeometry x="80" y="400" width="240" height="120" as="geometry" />
        </mxCell>
        <mxCell id="FvWVYKfLzOEbFjhHtuPe-66" value="MarketState" style="text;html=1;strokeColor=none;fillColor=none;align=center;verticalAlign=middle;whiteSpace=wrap;rounded=0;" parent="1" vertex="1">
          <mxGeometry x="220" y="410" width="90" height="30" as="geometry" />
        </mxCell>
        <mxCell id="FvWVYKfLzOEbFjhHtuPe-67" value="MarketState" style="rounded=0;whiteSpace=wrap;html=1;fillColor=#d5e8d4;strokeColor=#82b366;" parent="1" vertex="1">
          <mxGeometry x="90" y="410" width="120" height="40" as="geometry" />
        </mxCell>
        <mxCell id="FvWVYKfLzOEbFjhHtuPe-68" value="minAda" style="rounded=0;whiteSpace=wrap;html=1;fillColor=#dae8fc;strokeColor=#6c8ebf;" parent="1" vertex="1">
          <mxGeometry x="90" y="450" width="120" height="20" as="geometry" />
        </mxCell>
        <mxCell id="FvWVYKfLzOEbFjhHtuPe-69" value="MarketStateToken" style="rounded=0;whiteSpace=wrap;html=1;fillColor=#dae8fc;strokeColor=#6c8ebf;" parent="1" vertex="1">
          <mxGeometry x="90" y="470" width="120" height="20" as="geometry" />
        </mxCell>
        <mxCell id="FvWVYKfLzOEbFjhHtuPe-82" style="edgeStyle=orthogonalEdgeStyle;rounded=0;orthogonalLoop=1;jettySize=auto;html=1;exitX=1;exitY=0.5;exitDx=0;exitDy=0;dashed=1;" parent="1" source="FvWVYKfLzOEbFjhHtuPe-77" edge="1">
          <mxGeometry relative="1" as="geometry">
            <mxPoint x="480" y="1380" as="targetPoint" />
          </mxGeometry>
        </mxCell>
        <mxCell id="FvWVYKfLzOEbFjhHtuPe-77" value="" style="rounded=0;whiteSpace=wrap;html=1;fillColor=none;dashed=1;dashPattern=12 12;strokeWidth=1;" parent="1" vertex="1">
          <mxGeometry x="80" y="1320" width="240" height="120" as="geometry" />
        </mxCell>
        <mxCell id="FvWVYKfLzOEbFjhHtuPe-78" value="Market Params Validator" style="text;html=1;strokeColor=none;fillColor=none;align=center;verticalAlign=middle;whiteSpace=wrap;rounded=0;" parent="1" vertex="1">
          <mxGeometry x="220" y="1330" width="90" height="30" as="geometry" />
        </mxCell>
        <mxCell id="FvWVYKfLzOEbFjhHtuPe-79" value="MarketParams" style="rounded=0;whiteSpace=wrap;html=1;fillColor=#d5e8d4;strokeColor=#82b366;" parent="1" vertex="1">
          <mxGeometry x="90" y="1330" width="120" height="40" as="geometry" />
        </mxCell>
        <mxCell id="FvWVYKfLzOEbFjhHtuPe-80" value="minAda" style="rounded=0;whiteSpace=wrap;html=1;fillColor=#dae8fc;strokeColor=#6c8ebf;" parent="1" vertex="1">
          <mxGeometry x="90" y="1370" width="120" height="20" as="geometry" />
        </mxCell>
        <mxCell id="FvWVYKfLzOEbFjhHtuPe-81" value="MarketParamsToken" style="rounded=0;whiteSpace=wrap;html=1;fillColor=#dae8fc;strokeColor=#6c8ebf;" parent="1" vertex="1">
          <mxGeometry x="90" y="1390" width="120" height="20" as="geometry" />
        </mxCell>
        <mxCell id="FvWVYKfLzOEbFjhHtuPe-84" value="" style="rounded=0;whiteSpace=wrap;html=1;fillColor=none;dashed=1;dashPattern=12 12;strokeWidth=1;" parent="1" vertex="1">
          <mxGeometry x="480" y="720" width="240" height="120" as="geometry" />
        </mxCell>
        <mxCell id="FvWVYKfLzOEbFjhHtuPe-85" value="MarketState" style="text;html=1;strokeColor=none;fillColor=none;align=center;verticalAlign=middle;whiteSpace=wrap;rounded=0;" parent="1" vertex="1">
          <mxGeometry x="620" y="730" width="90" height="30" as="geometry" />
        </mxCell>
        <mxCell id="FvWVYKfLzOEbFjhHtuPe-86" value="MarketState" style="rounded=0;whiteSpace=wrap;html=1;fillColor=#d5e8d4;strokeColor=#82b366;" parent="1" vertex="1">
          <mxGeometry x="490" y="730" width="120" height="40" as="geometry" />
        </mxCell>
        <mxCell id="FvWVYKfLzOEbFjhHtuPe-87" value="minAda" style="rounded=0;whiteSpace=wrap;html=1;fillColor=#dae8fc;strokeColor=#6c8ebf;" parent="1" vertex="1">
          <mxGeometry x="490" y="770" width="120" height="20" as="geometry" />
        </mxCell>
        <mxCell id="FvWVYKfLzOEbFjhHtuPe-88" value="MarketStateToken" style="rounded=0;whiteSpace=wrap;html=1;fillColor=#dae8fc;strokeColor=#6c8ebf;" parent="1" vertex="1">
          <mxGeometry x="490" y="790" width="120" height="20" as="geometry" />
        </mxCell>
        <mxCell id="FvWVYKfLzOEbFjhHtuPe-95" value="&lt;div&gt;ActionValue = Zero&lt;/div&gt;" style="text;html=1;strokeColor=none;fillColor=none;align=center;verticalAlign=middle;whiteSpace=wrap;rounded=0;" parent="1" vertex="1">
          <mxGeometry x="610" y="590" width="110" height="80" as="geometry" />
        </mxCell>
        <mxCell id="FvWVYKfLzOEbFjhHtuPe-96" value="marketState update lastBatch = current" style="text;html=1;strokeColor=none;fillColor=none;align=center;verticalAlign=middle;whiteSpace=wrap;rounded=0;" parent="1" vertex="1">
          <mxGeometry x="610" y="750" width="110" height="80" as="geometry" />
        </mxCell>
        <mxCell id="FvWVYKfLzOEbFjhHtuPe-97" value="&lt;font style=&quot;font-size: 9px;&quot;&gt;actionValue = 0&lt;br&gt;reservedSupply = marketState.reserveNew&lt;/font&gt;" style="text;html=1;strokeColor=none;fillColor=none;align=center;verticalAlign=middle;whiteSpace=wrap;rounded=0;" parent="1" vertex="1">
          <mxGeometry x="610" y="915" width="110" height="75" as="geometry" />
        </mxCell>
        <mxCell id="FvWVYKfLzOEbFjhHtuPe-98" value="&lt;font style=&quot;font-size: 9px;&quot;&gt;actionValue = 0&lt;br&gt;reservedSupply = marketState.reserveNew&lt;/font&gt;" style="text;html=1;strokeColor=none;fillColor=none;align=center;verticalAlign=middle;whiteSpace=wrap;rounded=0;" parent="1" vertex="1">
          <mxGeometry x="610" y="1045" width="110" height="75" as="geometry" />
        </mxCell>
        <mxCell id="WtjrpzOSmNOJ3_J0PeFR-1" value="" style="rounded=0;whiteSpace=wrap;html=1;fontSize=12;movable=1;resizable=1;rotatable=1;deletable=1;editable=1;locked=0;connectable=1;" parent="1" vertex="1">
          <mxGeometry x="-240" y="100" width="240" height="640" as="geometry" />
        </mxCell>
        <mxCell id="WtjrpzOSmNOJ3_J0PeFR-2" value="Legend:" style="text;html=1;strokeColor=none;fillColor=none;align=center;verticalAlign=middle;whiteSpace=wrap;rounded=0;fontStyle=1;fontSize=24;movable=1;resizable=1;rotatable=1;deletable=1;editable=1;locked=0;connectable=1;" parent="1" vertex="1">
          <mxGeometry x="-200" y="100" width="160" height="70" as="geometry" />
        </mxCell>
        <mxCell id="WtjrpzOSmNOJ3_J0PeFR-3" value="Validator address" style="rounded=0;whiteSpace=wrap;html=1;fontSize=12;fillColor=none;dashed=1;horizontal=1;strokeColor=#000000;gradientColor=none;movable=1;resizable=1;rotatable=1;deletable=1;editable=1;locked=0;connectable=1;" parent="1" vertex="1">
          <mxGeometry x="-200" y="170" width="160" height="40" as="geometry" />
        </mxCell>
        <mxCell id="WtjrpzOSmNOJ3_J0PeFR-4" value="Tx" style="rounded=0;whiteSpace=wrap;html=1;fontSize=12;fillColor=#e1d5e7;horizontal=1;strokeColor=#9673a6;movable=1;resizable=1;rotatable=1;deletable=1;editable=1;locked=0;connectable=1;" parent="1" vertex="1">
          <mxGeometry x="-200" y="220" width="40" height="40" as="geometry" />
        </mxCell>
        <mxCell id="WtjrpzOSmNOJ3_J0PeFR-5" value="&lt;div&gt;Datum&lt;/div&gt;" style="rounded=0;whiteSpace=wrap;html=1;fontSize=12;fillColor=#d5e8d4;horizontal=1;strokeColor=#82b366;movable=1;resizable=1;rotatable=1;deletable=1;editable=1;locked=0;connectable=1;" parent="1" vertex="1">
          <mxGeometry x="-200" y="270" width="100" height="40" as="geometry" />
        </mxCell>
        <mxCell id="WtjrpzOSmNOJ3_J0PeFR-6" value="" style="rounded=0;whiteSpace=wrap;html=1;fontSize=12;fillColor=#d5e8d4;horizontal=1;strokeColor=#82b366;movable=1;resizable=1;rotatable=1;deletable=1;editable=1;locked=0;connectable=1;" parent="1" vertex="1">
          <mxGeometry x="-90" y="270" width="50" height="46" as="geometry" />
        </mxCell>
        <mxCell id="WtjrpzOSmNOJ3_J0PeFR-7" value="Value" style="rounded=0;whiteSpace=wrap;html=1;fontSize=12;fillColor=#dae8fc;horizontal=1;strokeColor=#6c8ebf;movable=1;resizable=1;rotatable=1;deletable=1;editable=1;locked=0;connectable=1;" parent="1" vertex="1">
          <mxGeometry x="-200" y="320" width="100" height="40" as="geometry" />
        </mxCell>
        <mxCell id="WtjrpzOSmNOJ3_J0PeFR-8" value="" style="rounded=0;whiteSpace=wrap;html=1;fontSize=12;fillColor=#dae8fc;horizontal=1;strokeColor=#6c8ebf;movable=1;resizable=1;rotatable=1;deletable=1;editable=1;locked=0;connectable=1;" parent="1" vertex="1">
          <mxGeometry x="-90" y="316" width="50" height="44" as="geometry" />
        </mxCell>
        <mxCell id="WtjrpzOSmNOJ3_J0PeFR-9" value="UTXO" style="text;html=1;strokeColor=none;fillColor=none;align=center;verticalAlign=middle;whiteSpace=wrap;rounded=0;fontSize=12;movable=1;resizable=1;rotatable=1;deletable=1;editable=1;locked=0;connectable=1;" parent="1" vertex="1">
          <mxGeometry x="-85" y="300" width="40" height="30" as="geometry" />
        </mxCell>
        <mxCell id="WtjrpzOSmNOJ3_J0PeFR-10" value="" style="triangle;whiteSpace=wrap;html=1;fontSize=12;strokeColor=default;fillColor=default;movable=1;resizable=1;rotatable=1;deletable=1;editable=1;locked=0;connectable=1;" parent="1" vertex="1">
          <mxGeometry x="-120" y="380" width="40" height="40" as="geometry" />
        </mxCell>
        <mxCell id="WtjrpzOSmNOJ3_J0PeFR-11" value="" style="endArrow=classic;html=1;rounded=0;fontSize=12;entryX=0;entryY=0.5;entryDx=0;entryDy=0;movable=1;resizable=1;rotatable=1;deletable=1;editable=1;locked=0;connectable=1;" parent="1" target="WtjrpzOSmNOJ3_J0PeFR-10" edge="1">
          <mxGeometry width="50" height="50" relative="1" as="geometry">
            <mxPoint x="-200" y="400" as="sourcePoint" />
            <mxPoint x="-150" y="420" as="targetPoint" />
          </mxGeometry>
        </mxCell>
        <mxCell id="WtjrpzOSmNOJ3_J0PeFR-12" value="Burn" style="text;html=1;strokeColor=none;fillColor=none;align=center;verticalAlign=middle;whiteSpace=wrap;rounded=0;fontSize=12;movable=1;resizable=1;rotatable=1;deletable=1;editable=1;locked=0;connectable=1;" parent="1" vertex="1">
          <mxGeometry x="-190" y="370" width="60" height="30" as="geometry" />
        </mxCell>
        <mxCell id="WtjrpzOSmNOJ3_J0PeFR-13" value="" style="triangle;whiteSpace=wrap;html=1;fontSize=12;strokeColor=default;fillColor=default;movable=1;resizable=1;rotatable=1;deletable=1;editable=1;locked=0;connectable=1;" parent="1" vertex="1">
          <mxGeometry x="-200" y="440" width="40" height="40" as="geometry" />
        </mxCell>
        <mxCell id="WtjrpzOSmNOJ3_J0PeFR-14" value="" style="endArrow=classic;html=1;rounded=0;fontSize=12;exitX=1;exitY=0.5;exitDx=0;exitDy=0;movable=1;resizable=1;rotatable=1;deletable=1;editable=1;locked=0;connectable=1;" parent="1" source="WtjrpzOSmNOJ3_J0PeFR-13" edge="1">
          <mxGeometry width="50" height="50" relative="1" as="geometry">
            <mxPoint x="-120" y="500" as="sourcePoint" />
            <mxPoint x="-80" y="460" as="targetPoint" />
          </mxGeometry>
        </mxCell>
        <mxCell id="WtjrpzOSmNOJ3_J0PeFR-15" value="Mint" style="text;html=1;strokeColor=none;fillColor=none;align=center;verticalAlign=middle;whiteSpace=wrap;rounded=0;fontSize=12;movable=1;resizable=1;rotatable=1;deletable=1;editable=1;locked=0;connectable=1;" parent="1" vertex="1">
          <mxGeometry x="-150" y="430" width="60" height="30" as="geometry" />
        </mxCell>
        <mxCell id="WtjrpzOSmNOJ3_J0PeFR-16" value="Wallet address" style="rounded=0;whiteSpace=wrap;html=1;fontSize=12;fillColor=#FFFAED;dashed=1;horizontal=1;dashPattern=1 4;strokeColor=#d6b656;movable=1;resizable=1;rotatable=1;deletable=1;editable=1;locked=0;connectable=1;" parent="1" vertex="1">
          <mxGeometry x="-200" y="500" width="160" height="40" as="geometry" />
        </mxCell>
        <mxCell id="WtjrpzOSmNOJ3_J0PeFR-17" style="edgeStyle=orthogonalEdgeStyle;rounded=0;orthogonalLoop=1;jettySize=auto;html=1;exitX=1;exitY=0.5;exitDx=0;exitDy=0;fontSize=12;movable=1;resizable=1;rotatable=1;deletable=1;editable=1;locked=0;connectable=1;" parent="1" source="WtjrpzOSmNOJ3_J0PeFR-18" edge="1">
          <mxGeometry relative="1" as="geometry">
            <mxPoint x="-50" y="601" as="targetPoint" />
          </mxGeometry>
        </mxCell>
        <mxCell id="WtjrpzOSmNOJ3_J0PeFR-18" value="..." style="ellipse;whiteSpace=wrap;html=1;aspect=fixed;fontSize=12;strokeColor=#000000;fillColor=none;gradientColor=none;movable=1;resizable=1;rotatable=1;deletable=1;editable=1;locked=0;connectable=1;" parent="1" vertex="1">
          <mxGeometry x="-195" y="586" width="30" height="30" as="geometry" />
        </mxCell>
        <mxCell id="WtjrpzOSmNOJ3_J0PeFR-19" value="Source omitted" style="text;html=1;strokeColor=none;fillColor=none;align=center;verticalAlign=middle;whiteSpace=wrap;rounded=0;fontSize=12;movable=1;resizable=1;rotatable=1;deletable=1;editable=1;locked=0;connectable=1;" parent="1" vertex="1">
          <mxGeometry x="-165" y="570" width="95" height="20" as="geometry" />
        </mxCell>
        <mxCell id="WtjrpzOSmNOJ3_J0PeFR-20" value="Script" style="rounded=0;whiteSpace=wrap;html=1;fontSize=12;fillColor=#f8cecc;horizontal=1;strokeColor=#b85450;movable=1;resizable=1;rotatable=1;deletable=1;editable=1;locked=0;connectable=1;" parent="1" vertex="1">
          <mxGeometry x="-150" y="220" width="110" height="40" as="geometry" />
        </mxCell>
        <mxCell id="WtjrpzOSmNOJ3_J0PeFR-21" value="" style="endArrow=none;html=1;rounded=0;fillColor=#e1d5e7;strokeColor=#9673a6;movable=1;resizable=1;rotatable=1;deletable=1;editable=1;locked=0;connectable=1;" parent="1" edge="1">
          <mxGeometry width="50" height="50" relative="1" as="geometry">
            <mxPoint x="-70" y="695" as="sourcePoint" />
            <mxPoint x="-70" y="645" as="targetPoint" />
          </mxGeometry>
        </mxCell>
        <mxCell id="WtjrpzOSmNOJ3_J0PeFR-22" value="" style="shape=link;html=1;rounded=0;fillColor=#e1d5e7;strokeColor=#9673a6;movable=1;resizable=1;rotatable=1;deletable=1;editable=1;locked=0;connectable=1;" parent="1" edge="1">
          <mxGeometry width="100" relative="1" as="geometry">
            <mxPoint x="-170" y="670" as="sourcePoint" />
            <mxPoint x="-70" y="670" as="targetPoint" />
          </mxGeometry>
        </mxCell>
        <mxCell id="WtjrpzOSmNOJ3_J0PeFR-23" value="Reference input" style="text;html=1;strokeColor=none;fillColor=none;align=center;verticalAlign=middle;whiteSpace=wrap;rounded=0;fontSize=12;movable=1;resizable=1;rotatable=1;deletable=1;editable=1;locked=0;connectable=1;" parent="1" vertex="1">
          <mxGeometry x="-167.5" y="645" width="95" height="20" as="geometry" />
        </mxCell>
      </root>
    </mxGraphModel>
  </diagram>
</mxfile>
